<svg width="251" height="186" viewBox="0 0 251 186" fill="none" xmlns="http://www.w3.org/2000/svg">
<path d="M106.241 178.73C107.158 178.784 107.664 177.725 106.971 177.109L106.902 176.854C106.911 176.833 106.92 176.813 106.929 176.793C107.856 174.739 110.999 174.753 111.919 176.81C112.735 178.635 113.774 180.464 114.03 182.394C114.145 183.246 114.093 184.114 113.889 184.95C115.802 181.071 116.808 176.835 116.808 172.575C116.808 171.504 116.745 170.434 116.616 169.366C116.51 168.493 116.364 167.625 116.174 166.765C115.151 162.116 112.935 157.688 109.738 153.99C108.201 153.21 106.92 151.99 106.146 150.529C105.868 150.002 105.65 149.434 105.547 148.857C105.721 148.878 106.206 146.404 106.074 146.253C106.318 145.909 106.754 145.738 107.02 145.403C108.344 143.737 110.168 144.028 111.12 146.293C113.154 147.246 113.174 148.827 111.926 150.348C111.132 151.315 111.022 152.624 110.326 153.66C110.397 153.745 110.472 153.828 110.544 153.913C111.858 155.478 112.995 157.161 113.953 158.929C113.682 156.964 114.082 154.597 114.764 153.071C115.54 151.333 116.994 149.869 118.275 148.366C119.814 146.561 122.968 147.348 123.239 149.637C123.242 149.659 123.245 149.681 123.247 149.703C123.057 149.803 122.871 149.909 122.688 150.021C121.65 150.659 122.009 152.154 123.239 152.33L123.267 152.334C123.198 152.97 123.081 153.601 122.909 154.222C124.552 160.123 121.005 162.272 115.939 162.369C115.827 162.422 115.719 162.476 115.607 162.526C116.12 163.868 116.53 165.245 116.834 166.64C117.106 167.872 117.295 169.119 117.401 170.37C117.533 171.949 117.522 173.536 117.378 175.112L117.387 175.056C117.751 173.32 118.766 171.699 120.24 170.575C122.435 168.9 125.536 168.284 127.905 166.937C129.045 166.289 130.506 167.127 130.307 168.354L130.297 168.413C129.944 168.546 129.6 168.701 129.268 168.874C129.078 168.973 128.891 169.079 128.709 169.191C127.671 169.829 128.03 171.324 129.26 171.5L129.288 171.504C129.308 171.507 129.325 171.51 129.345 171.512C128.74 172.846 127.897 174.084 126.842 175.152C125.815 180.304 121.402 180.792 116.682 179.292H116.679C116.163 181.38 115.409 183.419 114.44 185.363H106.441C106.412 185.28 106.387 185.195 106.361 185.112C107.1 185.155 107.846 185.115 108.574 184.99C107.981 184.314 107.387 183.632 106.794 182.956C106.779 182.942 106.768 182.929 106.756 182.916C106.455 182.57 106.152 182.226 105.85 181.88C105.832 180.818 105.969 179.758 106.241 178.73Z" fill="#F2F2F2"/>
<path d="M0 185.509C0 185.782 0.235269 186 0.528243 186H179.54C179.833 186 180.069 185.782 180.069 185.509C180.069 185.237 179.833 185.019 179.54 185.019H0.528243C0.235269 185.019 0 185.237 0 185.509Z" fill="#CCCCCC"/>
<path d="M241.8 185.891H150.116C145.289 185.891 141.361 182.243 141.361 177.76V8.9304C141.361 4.44699 145.289 0.799316 150.116 0.799316H241.8C246.628 0.799316 250.556 4.44699 250.556 8.9304V177.76C250.556 182.243 246.628 185.891 241.8 185.891ZM150.116 1.62378C145.771 1.62378 142.249 4.89497 142.249 8.93019V177.76C142.249 181.795 145.771 185.066 150.117 185.066H241.8C246.145 185.066 249.668 181.795 249.668 177.76V62.9244C249.668 29.069 220.115 1.62378 183.661 1.62378H150.116Z" fill="#E6E6E6"/>
<path d="M167.402 84.1185C173.286 84.1185 178.055 79.689 178.055 74.225C178.055 68.7609 173.286 64.3314 167.402 64.3314C161.519 64.3314 156.749 68.7609 156.749 74.225C156.749 79.689 161.519 84.1185 167.402 84.1185Z" fill="#E6E6E6"/>
<path d="M224.515 84.1185C230.398 84.1185 235.168 79.689 235.168 74.225C235.168 68.7609 230.398 64.3315 224.515 64.3315C218.631 64.3315 213.861 68.7609 213.861 74.225C213.861 79.689 218.631 84.1185 224.515 84.1185Z" fill="#E6E6E6"/>
<path d="M195.958 84.1185C201.842 84.1185 206.611 79.689 206.611 74.225C206.611 68.7609 201.842 64.3315 195.958 64.3315C190.075 64.3315 185.305 68.7609 185.305 74.225C185.305 79.689 190.075 84.1185 195.958 84.1185Z" fill="#E6E6E6"/>
<path d="M167.402 112.562C173.286 112.562 178.055 108.133 178.055 102.669C178.055 97.2048 173.286 92.7753 167.402 92.7753C161.519 92.7753 156.749 97.2048 156.749 102.669C156.749 108.133 161.519 112.562 167.402 112.562Z" fill="#E6E6E6"/>
<path d="M224.515 112.562C230.398 112.562 235.168 108.133 235.168 102.669C235.168 97.2048 230.398 92.7753 224.515 92.7753C218.631 92.7753 213.861 97.2048 213.861 102.669C213.861 108.133 218.631 112.562 224.515 112.562Z" fill="#E6E6E6"/>
<path d="M195.958 112.562C201.842 112.562 206.611 108.133 206.611 102.669C206.611 97.2048 201.842 92.7753 195.958 92.7753C190.075 92.7753 185.305 97.2048 185.305 102.669C185.305 108.133 190.075 112.562 195.958 112.562Z" fill="#E6E6E6"/>
<path d="M167.402 141.006C173.286 141.006 178.055 136.577 178.055 131.113C178.055 125.649 173.286 121.219 167.402 121.219C161.519 121.219 156.749 125.649 156.749 131.113C156.749 136.577 161.519 141.006 167.402 141.006Z" fill="#E6E6E6"/>
<path d="M224.297 169.401C230.18 169.401 234.95 164.972 234.95 159.508C234.95 154.044 230.18 149.614 224.297 149.614C218.413 149.614 213.644 154.044 213.644 159.508C213.644 164.972 218.413 169.401 224.297 169.401Z" fill="#E6E6E6"/>
<path d="M181.906 169.401C195.757 169.401 206.985 164.972 206.985 159.508C206.985 154.044 195.757 149.614 181.906 149.614C168.055 149.614 156.827 154.044 156.827 159.508C156.827 164.972 168.055 169.401 181.906 169.401Z" fill="#E6E6E6"/>
<path d="M224.515 141.006C230.398 141.006 235.168 136.577 235.168 131.113C235.168 125.649 230.398 121.219 224.515 121.219C218.631 121.219 213.861 125.649 213.861 131.113C213.861 136.577 218.631 141.006 224.515 141.006Z" fill="#E6E6E6"/>
<path d="M195.958 141.006C201.842 141.006 206.611 136.577 206.611 131.113C206.611 125.649 201.842 121.219 195.958 121.219C190.075 121.219 185.305 125.649 185.305 131.113C185.305 136.577 190.075 141.006 195.958 141.006Z" fill="#F3F5FC"/>
<path d="M198.052 12.3418H96.1666C93.1456 12.3418 90.689 14.6232 90.689 17.4288V52.1878C90.689 54.9934 93.1456 57.2749 96.1666 57.2749H198.052C201.073 57.2749 203.529 54.9934 203.529 52.1878V17.4288C203.529 14.6232 201.073 12.3418 198.052 12.3418Z" fill="#7700DA"/>
<path d="M198.052 12.3418H96.1666C93.1456 12.3418 90.689 14.6232 90.689 17.4288V52.1878C90.689 54.9934 93.1456 57.2749 96.1666 57.2749H198.052C201.073 57.2749 203.529 54.9934 203.529 52.1878V17.4288C203.529 14.6232 201.073 12.3418 198.052 12.3418ZM202.953 52.1878C202.953 54.6992 200.756 56.7399 198.052 56.7399H96.1666C93.4623 56.7399 91.2649 54.6992 91.2649 52.1878V17.4288C91.2649 14.9174 93.4623 12.8767 96.1666 12.8767H198.052C200.756 12.8767 202.953 14.9174 202.953 17.4288V52.1878Z" fill="#3F3D56"/>
<path d="M192.385 33.3655H101.834C100.976 33.3655 100.28 34.0115 100.28 34.8083C100.28 35.6051 100.976 36.2511 101.834 36.2511H192.385C193.243 36.2511 193.939 35.6051 193.939 34.8083C193.939 34.0115 193.243 33.3655 192.385 33.3655Z" fill="#F3F5FC"/>
<path d="M30.1626 75.1744L29.2551 80.1932L37.3029 98.3741L41.6208 96.3125L37.4181 79.2989L36.8141 72.8059L30.1626 75.1744Z" fill="#A0616A"/>
<path d="M39.0463 46.9396C39.0463 46.9396 34.8328 45.044 31.5632 51.449C28.2936 57.8539 28.6984 71.9015 28.6984 71.9015C28.6984 71.9015 27.5079 72.9543 28.2637 73.6914C29.0194 74.4285 29.724 75.5983 28.953 76.9467C28.5467 77.6574 27.6063 79.0477 29.1463 79.4427C30.6863 79.8377 37.8898 77.9718 37.8898 77.9718C37.8898 77.9718 40.5834 76.8512 39.0529 76.0965C37.5224 75.3417 39.6779 70.7765 39.6779 70.7765L41.459 57.5886L39.0463 46.9396Z" fill="#F3F5FC"/>
<path d="M42.3548 105.32C44.0461 104.838 44.708 102.303 43.8333 99.6572C42.9586 97.0119 40.8785 95.2584 39.1872 95.7407C37.496 96.223 36.834 98.7585 37.7087 101.404C38.5834 104.049 40.6635 105.803 42.3548 105.32Z" fill="#A0616A"/>
<path d="M82.241 183.24L86.2742 182.235L84.0184 167.308L78.0657 168.792L82.241 183.24Z" fill="#A0616A"/>
<path d="M96.035 179.711C96.2174 179.877 96.4668 180.494 96.5328 180.722C96.7357 181.425 96.2872 182.147 95.5312 182.335L83.0405 185.448C82.5248 185.576 81.9945 185.292 81.8561 184.813L81.7165 184.33C81.7165 184.33 80.6793 183.032 81.4345 180.926C81.4345 180.926 83.4204 181.933 85.149 179.15L85.5071 177.805L91.5399 179.973L94.4276 179.596C95.0594 179.514 95.5783 179.298 96.035 179.711Z" fill="#2F2E41"/>
<path d="M42.7062 183.154L46.8822 183.153L48.8687 168.194L42.7054 168.195L42.7062 183.154Z" fill="#A0616A"/>
<path d="M57.0136 183.066C57.1437 183.269 57.2123 183.926 57.2123 184.162C57.2123 184.889 56.5777 185.478 55.7949 185.478H42.8624C42.3284 185.478 41.8955 185.076 41.8955 184.58V184.08C41.8955 184.08 41.2557 182.578 42.5729 180.725C42.5729 180.725 44.21 182.176 46.6561 179.904L47.3775 178.69L52.5991 182.237L55.4933 182.568C56.1265 182.64 56.6879 182.556 57.0136 183.066Z" fill="#2F2E41"/>
<path d="M70.4981 94.0479L81.4791 138.005L86.7803 173.522L78.4499 174.577L55.352 114.092L50.0508 174.577L40.5844 175.28C40.5844 175.28 33.0113 103.543 36.4192 94.7512L70.4981 94.0479Z" fill="#2F2E41"/>
<path d="M83.5689 42.0696L87.3576 38.3929L91.7086 19.1555L86.8897 18.6059L80.0655 34.8703L76.6343 40.5553L83.5689 42.0696Z" fill="#A0616A"/>
<path d="M59.1292 60.7809C59.1292 60.7809 62.6751 66.8529 69.2564 63.2632C75.8378 59.6736 82.7983 45.5407 82.7983 45.5407C82.7983 45.5407 84.1881 41.948 85.642 41.2354C86.4083 40.8599 88.38 40.4549 87.3455 39.3242C86.3111 38.1935 78.872 35.7215 78.872 35.7215C78.872 35.7215 75.966 35.2419 76.7748 36.6651C77.5836 38.0884 74.9273 37.2067 75.1954 38.713C75.4636 40.2193 73.0373 40.7383 73.0373 40.7383L59.1292 60.7809Z" fill="#F3F5FC"/>
<path d="M93.2071 16.4381C94.0852 13.7937 93.4265 11.2575 91.7359 10.7733C90.0452 10.2891 87.9628 12.0403 87.0848 14.6847C86.2067 17.329 86.8654 19.8652 88.556 20.3494C90.2467 20.8336 92.329 19.0824 93.2071 16.4381Z" fill="#A0616A"/>
<path d="M59.6 39.7441H49.2326L48.813 42.7798C48.813 42.7798 35.7379 46.1191 36.0648 47.9405C36.3917 49.762 38.353 80.119 38.353 80.119L36.7186 95.2975C36.7186 95.2975 66.1375 106.833 70.7138 93.1725L68.4256 77.3868C68.4256 77.3868 73.9825 50.3691 72.675 49.1548C71.3675 47.9405 60.5806 43.0834 60.5806 43.0834L59.6 39.7441Z" fill="#F3F5FC"/>
<path d="M53.5779 39.782C58.7172 39.782 62.8834 35.9128 62.8834 31.14C62.8834 26.3671 58.7172 22.498 53.5779 22.498C48.4386 22.498 44.2724 26.3671 44.2724 31.14C44.2724 35.9128 48.4386 39.782 53.5779 39.782Z" fill="#A0616A"/>
<path d="M60.4694 27.5851C61.6584 27.4918 62.8473 27.3984 64.0362 27.3051C63.6276 27.131 63.202 26.9447 62.9296 26.6124C62.6574 26.2801 62.6011 25.7551 62.93 25.4704C63.3143 25.1377 63.9509 25.314 64.371 25.607C64.1397 24.4854 63.4188 23.4577 62.4075 22.808C61.1722 22.0143 58.116 22.9607 56.6268 22.7785C54.9084 22.5682 54.6939 21.2076 52.9755 20.9974C52.3279 20.9182 51.599 20.8584 51.0897 21.2384C50.5248 21.6598 50.4614 22.4566 49.963 22.9451C49.2514 23.6424 48.0318 23.4367 47.0192 23.6329C45.5849 23.9109 44.5037 25.0789 44.0043 26.3581C43.5049 27.6374 43.4865 29.0288 43.4738 30.3896C43.4595 31.9145 43.4544 33.6799 44.642 34.7331C45.3655 35.3748 47.3364 37.5763 47.5495 38.4842C47.7008 39.1289 53.8675 39.9142 55.2041 39.8785L59.7596 38.4842C60.2073 36.6533 59.4667 33.0315 58.4023 31.4353C58.7528 31.8653 60.3739 33.1598 60.6217 32.672C60.8695 32.1842 60.7571 30.6555 61.0656 30.1986C61.455 29.622 59.7391 27.6424 60.4694 27.5851Z" fill="#2F2E41"/>
</svg>
